%TF.GenerationSoftware,KiCad,Pcbnew,10.0.6*%
%TF.CreationDate,2026-09-18T00:23:22-04:00*%
%TF.ProjectId,uwmtr-thruster-control-board-hw,75776d74-722d-4746-9872-75737465722d,rev?*%
%TF.SameCoordinates,Original*%
%TF.FileFunction,Copper,L4,Bot*%
%TF.FilePolarity,Positive*%
%FSLAX46Y46*%
G04 Gerber Fmt 4.6, Leading zero omitted, Abs format (unit mm)*
G04 Created by KiCad (PCBNEW 10.0.6) date 2026-09-18 00:23:22*
%MOMM*%
%LPD*%
G01*
G04 APERTURE LIST*
%TA.AperFunction,ComponentPad*%
%ADD10C,1.950000*%
%TD*%
%TA.AperFunction,ComponentPad*%
%ADD11C,1.600000*%
%TD*%
%TA.AperFunction,ComponentPad*%
%ADD12R,1.700000X1.700000*%
%TD*%
%TA.AperFunction,ComponentPad*%
%ADD13C,1.700000*%
%TD*%
%TA.AperFunction,ViaPad*%
%ADD14C,0.600000*%
%TD*%
%TA.AperFunction,Conductor*%
%ADD15C,0.200000*%
%TD*%
G04 APERTURE END LIST*
D10*
%TO.P,J3,1*%
%TO.N,+24V*%
X172000000Y-90000000D03*
%TO.P,J3,2*%
%TO.N,PGND*%
X167000000Y-90000000D03*
%TD*%
D11*
%TO.P,C6,1*%
%TO.N,+24V*%
X173000000Y-101900000D03*
%TO.P,C6,2*%
%TO.N,PGND*%
X173000000Y-98400000D03*
%TD*%
D12*
%TO.P,J1,1,Pin_13_1*%
%TO.N,+3.3V*%
X175250000Y-132000000D03*
D13*
%TO.P,J1,2,Pin_12_2*%
%TO.N,/FAULT_N*%
X172710000Y-132000000D03*
%TO.P,J1,3,Pin_11_3*%
%TO.N,/SOX*%
X170170000Y-132000000D03*
%TO.P,J1,4,Pin_10_4*%
%TO.N,/BRAKE*%
X167630000Y-132000000D03*
%TO.P,J1,5,Pin_9_5*%
%TO.N,/DIR*%
X165090000Y-132000000D03*
%TO.P,J1,6,Pin_8_6*%
%TO.N,/EXT_CLK*%
X162550000Y-132000000D03*
%TO.P,J1,7,Pin_7_7*%
%TO.N,/EXT_WD*%
X160010000Y-132000000D03*
%TO.P,J1,8,Pin_6_8*%
%TO.N,/I2C_SCL*%
X157470000Y-132000000D03*
%TO.P,J1,9,Pin_5_9*%
%TO.N,/I2C_SDA*%
X154930000Y-132000000D03*
%TO.P,J1,10,Pin_4_10*%
%TO.N,/FG*%
X152390000Y-132000000D03*
%TO.P,J1,11,Pin_3_11*%
%TO.N,/SPEED_WAKE*%
X149850000Y-132000000D03*
%TO.P,J1,12,Pin_2_12*%
%TO.N,/DRVOFF*%
X147310000Y-132000000D03*
%TO.P,J1,13,Pin_1_13*%
%TO.N,AGND*%
X144770000Y-132000000D03*
%TD*%
D10*
%TO.P,J2,1*%
%TO.N,/OUT_A*%
X157500000Y-90000000D03*
%TO.P,J2,2*%
%TO.N,/OUT_B*%
X152500000Y-90000000D03*
%TO.P,J2,3*%
%TO.N,/OUT_C*%
X147500000Y-90000000D03*
%TD*%
D14*
%TO.N,/AVDD*%
X152900000Y-106500000D03*
X155600000Y-115100000D03*
X164500000Y-117500000D03*
X154850000Y-112400000D03*
X150100000Y-115500000D03*
%TO.N,+24V*%
X178000000Y-104500000D03*
X172000000Y-93500000D03*
X169000000Y-102500000D03*
X178000000Y-90500000D03*
X178000000Y-96500000D03*
X174750000Y-105000000D03*
X170750000Y-105000000D03*
X164050000Y-105300000D03*
%TO.N,PGND*%
X143000000Y-89500000D03*
X149000000Y-99500000D03*
X143000000Y-94500000D03*
X159500000Y-97000000D03*
X156000000Y-99500000D03*
X161000000Y-100500000D03*
X161000000Y-97000000D03*
X159500000Y-100500000D03*
%TO.N,+3.3V*%
X178000000Y-117500000D03*
X178000000Y-124500000D03*
X172000000Y-117500000D03*
%TO.N,AGND*%
X168000000Y-115250000D03*
X159500000Y-104500000D03*
X160500000Y-106250000D03*
X161000000Y-109250000D03*
X159500000Y-106250000D03*
X160000000Y-109250000D03*
X160500000Y-108250000D03*
X156000000Y-105500000D03*
X161000000Y-107250000D03*
X159000000Y-105250000D03*
X160000000Y-107250000D03*
X171000000Y-110750000D03*
X161500000Y-104500000D03*
X161500000Y-108250000D03*
X169500000Y-115250000D03*
X160000000Y-105250000D03*
X159000000Y-109250000D03*
X159000000Y-107250000D03*
X159500000Y-108250000D03*
X161000000Y-105250000D03*
X160500000Y-104500000D03*
X161500000Y-106250000D03*
%TO.N,/SPEED_WAKE*%
X156250000Y-107650000D03*
%TO.N,/DRVOFF*%
X156950000Y-103550000D03*
%TO.N,/SW_BK*%
X174500000Y-109500000D03*
X171000000Y-107500000D03*
X178000000Y-107500000D03*
%TO.N,/OUT_A*%
X161775000Y-99225000D03*
X161775000Y-95375000D03*
X161800000Y-101925000D03*
%TO.N,/OUT_B*%
X156775000Y-94825000D03*
X152525000Y-94750000D03*
X160300000Y-101925000D03*
%TO.N,/OUT_C*%
X157400000Y-96875000D03*
X158750000Y-101900000D03*
X147475000Y-96900000D03*
X152400000Y-96875000D03*
%TD*%
%TO.N,/AVDD*%
D15*
X150700000Y-112400000D02*
X150000000Y-111700000D01*
X150000000Y-115400000D02*
X150100000Y-115500000D01*
X150000000Y-109400000D02*
X150000000Y-111700000D01*
X158800000Y-118300000D02*
X155600000Y-115100000D01*
X152900000Y-106500000D02*
X150000000Y-109400000D01*
X164500000Y-117500000D02*
X163700000Y-118300000D01*
X154850000Y-112400000D02*
X150700000Y-112400000D01*
X163700000Y-118300000D02*
X158800000Y-118300000D01*
X150000000Y-111700000D02*
X150000000Y-115400000D01*
%TO.N,/SPEED_WAKE*%
X154800000Y-114748529D02*
X154800000Y-127050000D01*
X155450000Y-114098529D02*
X154800000Y-114748529D01*
X155450000Y-108450000D02*
X155450000Y-114098529D01*
X156250000Y-107650000D02*
X155450000Y-108450000D01*
X154800000Y-127050000D02*
X149850000Y-132000000D01*
%TO.N,/DRVOFF*%
X155200000Y-104500000D02*
X153500000Y-104500000D01*
X153500000Y-104500000D02*
X147310000Y-110690000D01*
X147310000Y-110690000D02*
X147310000Y-132000000D01*
X156950000Y-103550000D02*
X156150000Y-103550000D01*
X156150000Y-103550000D02*
X155200000Y-104500000D01*
%TD*%
%TA.AperFunction,Conductor*%
%TO.N,PGND*%
G36*
X169237539Y-85869685D02*
G01*
X169283294Y-85922489D01*
X169294500Y-85974000D01*
X169294500Y-94862668D01*
X169295676Y-94884625D01*
X169295678Y-94884650D01*
X169298505Y-94910963D01*
X169302027Y-94932698D01*
X169303673Y-94940265D01*
X169320728Y-94988597D01*
X169348206Y-95043468D01*
X169348211Y-95043477D01*
X169376689Y-95086076D01*
X169377885Y-95087456D01*
X169422060Y-95125716D01*
X169422065Y-95125719D01*
X169480811Y-95163462D01*
X169499995Y-95172222D01*
X169499999Y-95172224D01*
X169500000Y-95172224D01*
X169500000Y-95375000D01*
X162500000Y-95375000D01*
X162500000Y-89883909D01*
X165525000Y-89883909D01*
X165525000Y-90116089D01*
X165545811Y-90247489D01*
X165561318Y-90345393D01*
X165633065Y-90566205D01*
X165738465Y-90773064D01*
X165795238Y-90851207D01*
X166282924Y-90363520D01*
X166344245Y-90330037D01*
X166413936Y-90335021D01*
X166469870Y-90376892D01*
X166473691Y-90382292D01*
X166495112Y-90414351D01*
X166495116Y-90414355D01*
X166495116Y-90414356D01*
X166585646Y-90504886D01*
X166617684Y-90526293D01*
X166662489Y-90579906D01*
X166671196Y-90649231D01*
X166641041Y-90712258D01*
X166636474Y-90717076D01*
X166148791Y-91204758D01*
X166148791Y-91204759D01*
X166148791Y-91204760D01*
X166226935Y-91261534D01*
X166433794Y-91366934D01*
X166654606Y-91438681D01*
X166883910Y-91475000D01*
X167116089Y-91475000D01*
X167116090Y-91475000D01*
X167345393Y-91438681D01*
X167566205Y-91366934D01*
X167773071Y-91261530D01*
X167851207Y-91204762D01*
X167851208Y-91204760D01*
X167851207Y-91204758D01*
X167363524Y-90717076D01*
X167330039Y-90655753D01*
X167335023Y-90586062D01*
X167376894Y-90530128D01*
X167382270Y-90526323D01*
X167414351Y-90504888D01*
X167504888Y-90414351D01*
X167526295Y-90382312D01*
X167579903Y-90337510D01*
X167649227Y-90328801D01*
X167712256Y-90358955D01*
X167717076Y-90363524D01*
X168204758Y-90851207D01*
X168204760Y-90851208D01*
X168204762Y-90851207D01*
X168261530Y-90773071D01*
X168366934Y-90566205D01*
X168438681Y-90345393D01*
X168475000Y-90116090D01*
X168475000Y-89883909D01*
X168438681Y-89654606D01*
X168366934Y-89433794D01*
X168261534Y-89226935D01*
X168204760Y-89148791D01*
X168204759Y-89148791D01*
X168204758Y-89148791D01*
X167717076Y-89636474D01*
X167655753Y-89669959D01*
X167586061Y-89664975D01*
X167530128Y-89623103D01*
X167526293Y-89617684D01*
X167504886Y-89585646D01*
X167414356Y-89495116D01*
X167414352Y-89495113D01*
X167414351Y-89495112D01*
X167382310Y-89473703D01*
X167337507Y-89420091D01*
X167328800Y-89350766D01*
X167358955Y-89287739D01*
X167363500Y-89282943D01*
X167851207Y-88795238D01*
X167773064Y-88738465D01*
X167566205Y-88633065D01*
X167345393Y-88561318D01*
X167345391Y-88561317D01*
X167345390Y-88561317D01*
X167169244Y-88533418D01*
X167116090Y-88525000D01*
X167116089Y-88525000D01*
X166883905Y-88525000D01*
X166654609Y-88561317D01*
X166433791Y-88633066D01*
X166226926Y-88738469D01*
X166226922Y-88738471D01*
X166148791Y-88795237D01*
X166148791Y-88795238D01*
X166636475Y-89282922D01*
X166669960Y-89344245D01*
X166664976Y-89413937D01*
X166623104Y-89469870D01*
X166617688Y-89473703D01*
X166585648Y-89495112D01*
X166585643Y-89495116D01*
X166495116Y-89585643D01*
X166495112Y-89585648D01*
X166473703Y-89617688D01*
X166420090Y-89662491D01*
X166350764Y-89671197D01*
X166287738Y-89641040D01*
X166282922Y-89636475D01*
X165795238Y-89148791D01*
X165795237Y-89148791D01*
X165738471Y-89226922D01*
X165738469Y-89226926D01*
X165633066Y-89433791D01*
X165561317Y-89654609D01*
X165525000Y-89883909D01*
X162500000Y-89883909D01*
X162500000Y-85991829D01*
X162505023Y-85956893D01*
X162509427Y-85941895D01*
X162547172Y-85883144D01*
X162548541Y-85881957D01*
X162603420Y-85854477D01*
X162610979Y-85852833D01*
X162637332Y-85850000D01*
X169170500Y-85850000D01*
X169237539Y-85869685D01*
G37*
%TD.AperFunction*%
%TD*%
%TA.AperFunction,Conductor*%
%TO.N,+24V*%
G36*
X175500000Y-103100000D02*
G01*
X173508363Y-103100000D01*
X173681349Y-103011859D01*
X173725921Y-102979474D01*
X173182945Y-102436498D01*
X173149460Y-102375175D01*
X173154444Y-102305483D01*
X173196316Y-102249550D01*
X173208618Y-102241434D01*
X173245606Y-102220080D01*
X173320080Y-102145606D01*
X173341429Y-102108627D01*
X173391994Y-102060413D01*
X173460600Y-102047188D01*
X173525466Y-102073155D01*
X173536497Y-102082946D01*
X174079473Y-102625922D01*
X174079473Y-102625921D01*
X174079474Y-102625922D01*
X174079474Y-102625921D01*
X174092943Y-102620342D01*
X174099159Y-102599174D01*
X174103159Y-102593324D01*
X174111857Y-102581352D01*
X174185665Y-102436498D01*
X174204755Y-102399031D01*
X174267990Y-102204417D01*
X174300000Y-102002317D01*
X174300000Y-101797682D01*
X174267990Y-101595582D01*
X174204755Y-101400968D01*
X174204753Y-101400965D01*
X174204753Y-101400963D01*
X174111859Y-101218650D01*
X174103156Y-101206672D01*
X174093615Y-101179933D01*
X174079473Y-101174075D01*
X173536497Y-101717053D01*
X173475174Y-101750538D01*
X173405483Y-101745554D01*
X173349549Y-101703683D01*
X173341430Y-101691374D01*
X173320080Y-101654394D01*
X173245606Y-101579920D01*
X173208625Y-101558569D01*
X173160410Y-101508003D01*
X173147186Y-101439396D01*
X173173154Y-101374531D01*
X173182936Y-101363509D01*
X173725922Y-100820524D01*
X173725921Y-100820523D01*
X173725920Y-100820522D01*
X173725919Y-100820521D01*
X173725914Y-100820517D01*
X173681360Y-100788147D01*
X173681357Y-100788144D01*
X173616198Y-100754944D01*
X173499031Y-100695244D01*
X173304417Y-100632009D01*
X173304411Y-100632008D01*
X173102322Y-100600000D01*
X173102317Y-100600000D01*
X172897683Y-100600000D01*
X172897678Y-100600000D01*
X172695587Y-100632008D01*
X172695585Y-100632008D01*
X172695582Y-100632009D01*
X172598275Y-100663626D01*
X172500963Y-100695245D01*
X172318640Y-100788145D01*
X172274077Y-100820522D01*
X172274077Y-100820524D01*
X172817055Y-101363501D01*
X172850540Y-101424824D01*
X172845556Y-101494515D01*
X172803685Y-101550449D01*
X172791374Y-101558569D01*
X172754397Y-101579917D01*
X172754392Y-101579921D01*
X172679921Y-101654392D01*
X172679915Y-101654400D01*
X172658568Y-101691374D01*
X172608001Y-101739589D01*
X172539393Y-101752811D01*
X172474529Y-101726843D01*
X172463501Y-101717054D01*
X171920524Y-101174077D01*
X171920523Y-101174077D01*
X171920522Y-101174077D01*
X171888145Y-101218640D01*
X171795245Y-101400963D01*
X171764848Y-101494515D01*
X171732009Y-101595582D01*
X171732008Y-101595585D01*
X171732008Y-101595587D01*
X171700000Y-101797676D01*
X171700000Y-102002322D01*
X171732008Y-102204411D01*
X171732009Y-102204417D01*
X171795244Y-102399031D01*
X171814335Y-102436498D01*
X171888144Y-102581357D01*
X171888147Y-102581360D01*
X171920517Y-102625914D01*
X171920521Y-102625919D01*
X171920523Y-102625921D01*
X171920524Y-102625922D01*
X172463503Y-102082942D01*
X172524824Y-102049459D01*
X172594515Y-102054443D01*
X172650449Y-102096314D01*
X172658567Y-102108622D01*
X172679920Y-102145606D01*
X172754394Y-102220080D01*
X172754395Y-102220081D01*
X172754397Y-102220082D01*
X172791373Y-102241430D01*
X172839588Y-102291996D01*
X172852812Y-102360603D01*
X172826844Y-102425468D01*
X172817054Y-102436498D01*
X172274075Y-102979473D01*
X172274076Y-102979473D01*
X172274076Y-102979474D01*
X172318650Y-103011859D01*
X172404786Y-103055747D01*
X172491635Y-103100000D01*
X166750000Y-103100000D01*
X166750000Y-103350000D01*
X164700000Y-103350000D01*
X164700000Y-105758170D01*
X164694975Y-105793114D01*
X164690570Y-105808112D01*
X164652827Y-105866855D01*
X164651458Y-105868042D01*
X164596597Y-105895518D01*
X164589039Y-105897163D01*
X164562668Y-105900000D01*
X162441830Y-105900000D01*
X162406889Y-105894975D01*
X162391890Y-105890570D01*
X162333144Y-105852827D01*
X162331957Y-105851458D01*
X162304477Y-105796583D01*
X162302832Y-105789021D01*
X162300000Y-105762668D01*
X162300000Y-104791829D01*
X162305023Y-104756893D01*
X162309427Y-104741895D01*
X162347172Y-104683144D01*
X162348541Y-104681957D01*
X162403420Y-104654477D01*
X162410979Y-104652833D01*
X162437332Y-104650000D01*
X163550000Y-104650000D01*
X163550000Y-100441829D01*
X163555023Y-100406893D01*
X163559427Y-100391895D01*
X163597172Y-100333144D01*
X163598541Y-100331957D01*
X163653420Y-100304477D01*
X163660979Y-100302833D01*
X163687332Y-100300000D01*
X175500000Y-100300000D01*
X175500000Y-103100000D01*
G37*
%TD.AperFunction*%
%TD*%
%TA.AperFunction,Conductor*%
%TO.N,+3.3V*%
G36*
X170019100Y-110019685D02*
G01*
X170035472Y-110032247D01*
X170493134Y-110448304D01*
X170529498Y-110507966D01*
X170529498Y-110572149D01*
X170499500Y-110684106D01*
X170499500Y-110815891D01*
X170533608Y-110943187D01*
X170566554Y-111000250D01*
X170599500Y-111057314D01*
X170692686Y-111150500D01*
X170806814Y-111216392D01*
X170934108Y-111250500D01*
X170934110Y-111250500D01*
X171065890Y-111250500D01*
X171065892Y-111250500D01*
X171193186Y-111216392D01*
X171203354Y-111210521D01*
X171271250Y-111194045D01*
X171337278Y-111216893D01*
X171348760Y-111226146D01*
X172200000Y-112000000D01*
X173849998Y-113499999D01*
X173849999Y-113499999D01*
X173850000Y-113500000D01*
X179375500Y-113500000D01*
X179442539Y-113519685D01*
X179488294Y-113572489D01*
X179499500Y-113624000D01*
X179499500Y-121250000D01*
X174000000Y-121250000D01*
X174000000Y-121500000D01*
X170374000Y-121500000D01*
X170306961Y-121480315D01*
X170261206Y-121427511D01*
X170250000Y-121376000D01*
X170250000Y-113000000D01*
X169250000Y-112000000D01*
X167624000Y-112000000D01*
X167556961Y-111980315D01*
X167511206Y-111927511D01*
X167500000Y-111876000D01*
X167500000Y-110124000D01*
X167519685Y-110056961D01*
X167572489Y-110011206D01*
X167624000Y-110000000D01*
X169952061Y-110000000D01*
X170019100Y-110019685D01*
G37*
%TD.AperFunction*%
%TD*%
%TA.AperFunction,Conductor*%
%TO.N,/OUT_A*%
G36*
X162068106Y-85830023D02*
G01*
X162083104Y-85834427D01*
X162141855Y-85872172D01*
X162143042Y-85873541D01*
X162170518Y-85928402D01*
X162172163Y-85935960D01*
X162175000Y-85962331D01*
X162175000Y-103808170D01*
X162169975Y-103843114D01*
X162165570Y-103858112D01*
X162127827Y-103916855D01*
X162126458Y-103918042D01*
X162071597Y-103945518D01*
X162064039Y-103947163D01*
X162037668Y-103950000D01*
X161516830Y-103950000D01*
X161481889Y-103944975D01*
X161466890Y-103940570D01*
X161408144Y-103902827D01*
X161406957Y-103901458D01*
X161379477Y-103846583D01*
X161377832Y-103839021D01*
X161375000Y-103812668D01*
X161375000Y-100900467D01*
X161380023Y-100865531D01*
X161389441Y-100833457D01*
X161401027Y-100806400D01*
X161466392Y-100693186D01*
X161500500Y-100565892D01*
X161500500Y-100434108D01*
X161466392Y-100306814D01*
X161405483Y-100201317D01*
X161397217Y-100184038D01*
X161383338Y-100148133D01*
X161375000Y-100103429D01*
X161375000Y-97400467D01*
X161380023Y-97365531D01*
X161389441Y-97333457D01*
X161401027Y-97306400D01*
X161466392Y-97193186D01*
X161500500Y-97065892D01*
X161500500Y-96934108D01*
X161466392Y-96806814D01*
X161405483Y-96701317D01*
X161397217Y-96684038D01*
X161383338Y-96648133D01*
X161375000Y-96603429D01*
X161375000Y-93475000D01*
X155766830Y-93475000D01*
X155731889Y-93469975D01*
X155716890Y-93465570D01*
X155658144Y-93427827D01*
X155656957Y-93426458D01*
X155629477Y-93371583D01*
X155627832Y-93364021D01*
X155625000Y-93337668D01*
X155625000Y-89883909D01*
X156025000Y-89883909D01*
X156025000Y-90116090D01*
X156061318Y-90345393D01*
X156133065Y-90566205D01*
X156238465Y-90773064D01*
X156295238Y-90851207D01*
X156782924Y-90363520D01*
X156844245Y-90330037D01*
X156913936Y-90335021D01*
X156969870Y-90376892D01*
X156973691Y-90382292D01*
X156995112Y-90414351D01*
X156995116Y-90414355D01*
X156995116Y-90414356D01*
X157085646Y-90504886D01*
X157117684Y-90526293D01*
X157162489Y-90579906D01*
X157171196Y-90649231D01*
X157141041Y-90712258D01*
X157136474Y-90717076D01*
X156648791Y-91204758D01*
X156648791Y-91204759D01*
X156648791Y-91204760D01*
X156726935Y-91261534D01*
X156933794Y-91366934D01*
X157154606Y-91438681D01*
X157383910Y-91475000D01*
X157616089Y-91475000D01*
X157616090Y-91475000D01*
X157845393Y-91438681D01*
X158066205Y-91366934D01*
X158273071Y-91261530D01*
X158351207Y-91204762D01*
X158351208Y-91204760D01*
X158351207Y-91204758D01*
X157863524Y-90717076D01*
X157830039Y-90655753D01*
X157835023Y-90586062D01*
X157876894Y-90530128D01*
X157882270Y-90526323D01*
X157914351Y-90504888D01*
X158004888Y-90414351D01*
X158026295Y-90382312D01*
X158079903Y-90337510D01*
X158149227Y-90328801D01*
X158212256Y-90358955D01*
X158217076Y-90363524D01*
X158704758Y-90851207D01*
X158704760Y-90851208D01*
X158704762Y-90851207D01*
X158761530Y-90773071D01*
X158866934Y-90566205D01*
X158938681Y-90345393D01*
X158975000Y-90116090D01*
X158975000Y-89883909D01*
X158938681Y-89654606D01*
X158866934Y-89433794D01*
X158761534Y-89226935D01*
X158704760Y-89148791D01*
X158704759Y-89148791D01*
X158704758Y-89148791D01*
X158217076Y-89636474D01*
X158155753Y-89669959D01*
X158086061Y-89664975D01*
X158030128Y-89623103D01*
X158026293Y-89617684D01*
X158004886Y-89585646D01*
X157914356Y-89495116D01*
X157914352Y-89495113D01*
X157914351Y-89495112D01*
X157882310Y-89473703D01*
X157837507Y-89420091D01*
X157828800Y-89350766D01*
X157858955Y-89287739D01*
X157863500Y-89282943D01*
X158351207Y-88795238D01*
X158273064Y-88738465D01*
X158066205Y-88633065D01*
X157845393Y-88561318D01*
X157845391Y-88561317D01*
X157845390Y-88561317D01*
X157669244Y-88533418D01*
X157616090Y-88525000D01*
X157616089Y-88525000D01*
X157383905Y-88525000D01*
X157154609Y-88561317D01*
X156933791Y-88633066D01*
X156726926Y-88738469D01*
X156726922Y-88738471D01*
X156648791Y-88795237D01*
X156648791Y-88795238D01*
X157136475Y-89282922D01*
X157169960Y-89344245D01*
X157164976Y-89413937D01*
X157123104Y-89469870D01*
X157117688Y-89473703D01*
X157085648Y-89495112D01*
X157085643Y-89495116D01*
X156995116Y-89585643D01*
X156995112Y-89585648D01*
X156973703Y-89617688D01*
X156920090Y-89662491D01*
X156850764Y-89671197D01*
X156787738Y-89641040D01*
X156782922Y-89636475D01*
X156295238Y-89148791D01*
X156295237Y-89148791D01*
X156238471Y-89226922D01*
X156238469Y-89226926D01*
X156133066Y-89433791D01*
X156061317Y-89654609D01*
X156045811Y-89752511D01*
X156025000Y-89883909D01*
X155625000Y-89883909D01*
X155625000Y-85966829D01*
X155630023Y-85931893D01*
X155634427Y-85916895D01*
X155672172Y-85858144D01*
X155673541Y-85856957D01*
X155728420Y-85829477D01*
X155735979Y-85827833D01*
X155762332Y-85825000D01*
X162033170Y-85825000D01*
X162068106Y-85830023D01*
G37*
%TD.AperFunction*%
%TD*%
%TA.AperFunction,Conductor*%
%TO.N,PGND*%
G36*
X155363497Y-85844685D02*
G01*
X155409252Y-85897489D01*
X155420142Y-85957842D01*
X155419500Y-85966816D01*
X155419500Y-85966829D01*
X155419500Y-93337668D01*
X155420676Y-93359625D01*
X155420678Y-93359650D01*
X155423505Y-93385963D01*
X155427027Y-93407698D01*
X155428673Y-93415265D01*
X155445728Y-93463597D01*
X155473206Y-93518468D01*
X155473211Y-93518477D01*
X155501689Y-93561076D01*
X155502885Y-93562456D01*
X155547060Y-93600716D01*
X155547065Y-93600719D01*
X155605811Y-93638462D01*
X155658983Y-93662743D01*
X155673982Y-93667148D01*
X155702636Y-93673382D01*
X155737577Y-93678407D01*
X155766830Y-93680500D01*
X161045500Y-93680500D01*
X161112539Y-93700185D01*
X161158294Y-93752989D01*
X161169500Y-93804500D01*
X161169500Y-96603440D01*
X161172983Y-96641099D01*
X161172985Y-96641118D01*
X161181320Y-96685804D01*
X161181321Y-96685809D01*
X161191660Y-96722227D01*
X161191661Y-96722230D01*
X161205542Y-96758139D01*
X161211835Y-96772718D01*
X161220099Y-96789993D01*
X161227518Y-96804073D01*
X161266733Y-96871995D01*
X161279119Y-96901898D01*
X161290774Y-96945392D01*
X161295000Y-96977485D01*
X161295000Y-97022510D01*
X161290774Y-97054606D01*
X161279119Y-97098099D01*
X161266733Y-97128002D01*
X161223052Y-97203661D01*
X161212120Y-97225503D01*
X161200532Y-97252564D01*
X161200525Y-97252581D01*
X161192271Y-97275542D01*
X161192267Y-97275556D01*
X161182848Y-97307629D01*
X161182845Y-97307640D01*
X161176615Y-97336279D01*
X161171592Y-97371220D01*
X161169500Y-97400467D01*
X161169500Y-100103440D01*
X161172983Y-100141099D01*
X161172985Y-100141118D01*
X161181320Y-100185804D01*
X161181321Y-100185809D01*
X161191660Y-100222227D01*
X161191661Y-100222230D01*
X161205542Y-100258139D01*
X161211835Y-100272718D01*
X161220099Y-100289993D01*
X161227518Y-100304073D01*
X161266733Y-100371995D01*
X161279119Y-100401898D01*
X161290774Y-100445392D01*
X161295000Y-100477485D01*
X161295000Y-100522510D01*
X161290774Y-100554606D01*
X161279119Y-100598099D01*
X161266733Y-100628002D01*
X161223052Y-100703661D01*
X161212120Y-100725503D01*
X161200532Y-100752564D01*
X161200525Y-100752581D01*
X161192271Y-100775542D01*
X161192267Y-100775556D01*
X161182848Y-100807629D01*
X161182845Y-100807640D01*
X161176615Y-100836279D01*
X161171592Y-100871220D01*
X161169500Y-100900467D01*
X161169500Y-103812665D01*
X161169859Y-103819377D01*
X161153783Y-103887372D01*
X161103498Y-103935882D01*
X161046036Y-103950000D01*
X160953542Y-103950000D01*
X160886503Y-103930315D01*
X160840748Y-103877511D01*
X160829858Y-103817159D01*
X160830499Y-103808184D01*
X160830500Y-103808170D01*
X160830500Y-100896569D01*
X160828155Y-100871222D01*
X160827012Y-100858862D01*
X160818666Y-100814143D01*
X160808326Y-100777735D01*
X160794443Y-100741829D01*
X160788143Y-100727239D01*
X160788138Y-100727227D01*
X160779885Y-100709979D01*
X160779344Y-100708953D01*
X160772472Y-100695912D01*
X160745927Y-100649935D01*
X160745926Y-100649932D01*
X160733263Y-100627999D01*
X160720878Y-100598098D01*
X160715052Y-100576354D01*
X160715052Y-100576353D01*
X160709225Y-100554605D01*
X160705000Y-100522513D01*
X160705000Y-100477485D01*
X160709225Y-100445393D01*
X160720880Y-100401894D01*
X160733266Y-100371990D01*
X160776935Y-100296356D01*
X160787874Y-100274505D01*
X160799463Y-100247444D01*
X160807731Y-100224447D01*
X160811725Y-100210844D01*
X160817143Y-100192399D01*
X160817149Y-100192376D01*
X160818579Y-100185804D01*
X160823384Y-100163719D01*
X160828408Y-100128780D01*
X160830500Y-100099531D01*
X160830500Y-97396564D01*
X160827012Y-97358862D01*
X160818666Y-97314143D01*
X160808326Y-97277735D01*
X160794443Y-97241829D01*
X160788143Y-97227239D01*
X160788138Y-97227227D01*
X160779885Y-97209979D01*
X160779344Y-97208953D01*
X160772472Y-97195912D01*
X160745927Y-97149935D01*
X160745926Y-97149932D01*
X160733263Y-97127999D01*
X160720878Y-97098098D01*
X160715052Y-97076354D01*
X160715052Y-97076353D01*
X160709225Y-97054605D01*
X160705000Y-97022513D01*
X160705000Y-96977485D01*
X160709225Y-96945393D01*
X160720880Y-96901894D01*
X160733266Y-96871990D01*
X160776935Y-96796356D01*
X160787874Y-96774505D01*
X160799463Y-96747444D01*
X160807731Y-96724447D01*
X160811725Y-96710844D01*
X160817143Y-96692399D01*
X160817149Y-96692376D01*
X160818579Y-96685804D01*
X160823384Y-96663719D01*
X160828408Y-96628780D01*
X160830500Y-96599531D01*
X160830500Y-94362331D01*
X160829321Y-94340350D01*
X160826484Y-94313979D01*
X160822962Y-94292256D01*
X160821317Y-94284698D01*
X160816769Y-94271812D01*
X160804263Y-94236379D01*
X160790685Y-94209269D01*
X160776786Y-94181517D01*
X160748306Y-94138918D01*
X160748302Y-94138912D01*
X160747120Y-94137550D01*
X160702931Y-94099277D01*
X160702927Y-94099274D01*
X160644187Y-94061536D01*
X160644175Y-94061530D01*
X160591003Y-94037251D01*
X160590999Y-94037250D01*
X160576025Y-94032853D01*
X160575994Y-94032845D01*
X160547357Y-94026615D01*
X160512415Y-94021592D01*
X160512417Y-94021592D01*
X160483170Y-94019500D01*
X154904500Y-94019500D01*
X154837461Y-93999815D01*
X154791706Y-93947011D01*
X154780500Y-93895500D01*
X154780500Y-85961809D01*
X154780500Y-85961791D01*
X154780170Y-85955578D01*
X154796270Y-85887588D01*
X154846573Y-85839097D01*
X154903995Y-85825000D01*
X155296458Y-85825000D01*
X155363497Y-85844685D01*
G37*
%TD.AperFunction*%
%TD*%
%TA.AperFunction,Conductor*%
%TO.N,PGND*%
G36*
X169519892Y-95235715D02*
G01*
X169519893Y-95235715D01*
X169519894Y-95235716D01*
X169534893Y-95240121D01*
X169534900Y-95240122D01*
X169534902Y-95240123D01*
X169570504Y-95247870D01*
X169570519Y-95247873D01*
X169605460Y-95252898D01*
X169641830Y-95255500D01*
X175120500Y-95255500D01*
X175187539Y-95275185D01*
X175233294Y-95327989D01*
X175244500Y-95379500D01*
X175244500Y-99920500D01*
X175224815Y-99987539D01*
X175172011Y-100033294D01*
X175120500Y-100044500D01*
X163687331Y-100044500D01*
X163660028Y-100045963D01*
X163649333Y-100047113D01*
X163633670Y-100048797D01*
X163606680Y-100053170D01*
X163599121Y-100054814D01*
X163599116Y-100054815D01*
X163599106Y-100054818D01*
X163539029Y-100076015D01*
X163539012Y-100076022D01*
X163484152Y-100103493D01*
X163484138Y-100103501D01*
X163431168Y-100138912D01*
X163431160Y-100138918D01*
X163429792Y-100140105D01*
X163382211Y-100195041D01*
X163382208Y-100195045D01*
X163344472Y-100253783D01*
X163344461Y-100253802D01*
X163314277Y-100319908D01*
X163309873Y-100334903D01*
X163309873Y-100334907D01*
X163302123Y-100370533D01*
X163297101Y-100405466D01*
X163294500Y-100441829D01*
X163294500Y-104226000D01*
X163274815Y-104293039D01*
X163222011Y-104338794D01*
X163170500Y-104350000D01*
X162641830Y-104350000D01*
X162606889Y-104344975D01*
X162591890Y-104340570D01*
X162533144Y-104302827D01*
X162531957Y-104301458D01*
X162504477Y-104246583D01*
X162502832Y-104239021D01*
X162500000Y-104212668D01*
X162500000Y-98297676D01*
X171700000Y-98297676D01*
X171700000Y-98502322D01*
X171732008Y-98704411D01*
X171732009Y-98704417D01*
X171795244Y-98899031D01*
X171814335Y-98936498D01*
X171888144Y-99081357D01*
X171888147Y-99081360D01*
X171920517Y-99125914D01*
X171920521Y-99125919D01*
X171920523Y-99125921D01*
X171920524Y-99125922D01*
X172463503Y-98582942D01*
X172524824Y-98549459D01*
X172594515Y-98554443D01*
X172650449Y-98596314D01*
X172658567Y-98608622D01*
X172679920Y-98645606D01*
X172754394Y-98720080D01*
X172754395Y-98720081D01*
X172754397Y-98720082D01*
X172791373Y-98741430D01*
X172839588Y-98791996D01*
X172852812Y-98860603D01*
X172826844Y-98925468D01*
X172817054Y-98936498D01*
X172274075Y-99479473D01*
X172274076Y-99479473D01*
X172274076Y-99479474D01*
X172318650Y-99511859D01*
X172404786Y-99555747D01*
X172500963Y-99604753D01*
X172500965Y-99604753D01*
X172500968Y-99604755D01*
X172695582Y-99667990D01*
X172897683Y-99700000D01*
X173102316Y-99700000D01*
X173102317Y-99700000D01*
X173304417Y-99667990D01*
X173499031Y-99604755D01*
X173681349Y-99511859D01*
X173725921Y-99479474D01*
X173182945Y-98936498D01*
X173149460Y-98875175D01*
X173154444Y-98805483D01*
X173196316Y-98749550D01*
X173208618Y-98741434D01*
X173245606Y-98720080D01*
X173320080Y-98645606D01*
X173341429Y-98608627D01*
X173391994Y-98560413D01*
X173460600Y-98547188D01*
X173525466Y-98573155D01*
X173536497Y-98582946D01*
X174079473Y-99125922D01*
X174079473Y-99125921D01*
X174079474Y-99125922D01*
X174079474Y-99125921D01*
X174092943Y-99120342D01*
X174099159Y-99099174D01*
X174103159Y-99093324D01*
X174111857Y-99081352D01*
X174185665Y-98936498D01*
X174204755Y-98899031D01*
X174267990Y-98704417D01*
X174300000Y-98502317D01*
X174300000Y-98297682D01*
X174267990Y-98095582D01*
X174204755Y-97900968D01*
X174204753Y-97900965D01*
X174204753Y-97900963D01*
X174111859Y-97718650D01*
X174103156Y-97706672D01*
X174093615Y-97679933D01*
X174079473Y-97674075D01*
X173536497Y-98217053D01*
X173475174Y-98250538D01*
X173405483Y-98245554D01*
X173349549Y-98203683D01*
X173341430Y-98191374D01*
X173320080Y-98154394D01*
X173245606Y-98079920D01*
X173208625Y-98058569D01*
X173160410Y-98008003D01*
X173147186Y-97939396D01*
X173173154Y-97874531D01*
X173182936Y-97863509D01*
X173725922Y-97320524D01*
X173725921Y-97320523D01*
X173725920Y-97320522D01*
X173725919Y-97320521D01*
X173725914Y-97320517D01*
X173681360Y-97288147D01*
X173681357Y-97288144D01*
X173616198Y-97254944D01*
X173499031Y-97195244D01*
X173304417Y-97132009D01*
X173304411Y-97132008D01*
X173102322Y-97100000D01*
X173102317Y-97100000D01*
X172897683Y-97100000D01*
X172897678Y-97100000D01*
X172695587Y-97132008D01*
X172695585Y-97132008D01*
X172695582Y-97132009D01*
X172598275Y-97163626D01*
X172500963Y-97195245D01*
X172318640Y-97288145D01*
X172274077Y-97320522D01*
X172274077Y-97320524D01*
X172817055Y-97863501D01*
X172850540Y-97924824D01*
X172845556Y-97994515D01*
X172803685Y-98050449D01*
X172791374Y-98058569D01*
X172754397Y-98079917D01*
X172754392Y-98079921D01*
X172679921Y-98154392D01*
X172679915Y-98154400D01*
X172658568Y-98191374D01*
X172608001Y-98239589D01*
X172539393Y-98252811D01*
X172474529Y-98226843D01*
X172463501Y-98217054D01*
X171920524Y-97674077D01*
X171920523Y-97674077D01*
X171920522Y-97674077D01*
X171888145Y-97718640D01*
X171795245Y-97900963D01*
X171764848Y-97994515D01*
X171732009Y-98095582D01*
X171732008Y-98095585D01*
X171732008Y-98095587D01*
X171700000Y-98297676D01*
X162500000Y-98297676D01*
X162500000Y-95375000D01*
X169500000Y-95375000D01*
X169500000Y-95226631D01*
X169519892Y-95235715D01*
G37*
%TD.AperFunction*%
%TD*%
%TA.AperFunction,Conductor*%
%TO.N,+3.3V*%
G36*
X179499500Y-130496948D02*
G01*
X179499351Y-130503033D01*
X179482947Y-130836928D01*
X179481754Y-130849037D01*
X179433151Y-131176694D01*
X179430777Y-131188630D01*
X179350292Y-131509944D01*
X179346759Y-131521588D01*
X179235170Y-131833459D01*
X179230514Y-131844702D01*
X179088885Y-132144151D01*
X179083148Y-132154883D01*
X178912862Y-132438988D01*
X178906102Y-132449106D01*
X178708775Y-132715170D01*
X178701055Y-132724576D01*
X178478611Y-132970006D01*
X178470006Y-132978611D01*
X178224576Y-133201055D01*
X178215170Y-133208775D01*
X177949106Y-133406102D01*
X177938988Y-133412862D01*
X177654883Y-133583148D01*
X177644151Y-133588885D01*
X177344702Y-133730514D01*
X177333459Y-133735170D01*
X177021588Y-133846759D01*
X177009944Y-133850292D01*
X176688630Y-133930777D01*
X176676694Y-133933151D01*
X176349037Y-133981754D01*
X176336928Y-133982947D01*
X176021989Y-133998419D01*
X176003031Y-133999351D01*
X175996949Y-133999500D01*
X174124000Y-133999500D01*
X174056961Y-133979815D01*
X174011206Y-133927011D01*
X174000000Y-133875500D01*
X174000000Y-133413049D01*
X174019685Y-133346010D01*
X174072489Y-133300255D01*
X174141647Y-133290311D01*
X174167334Y-133296867D01*
X174292623Y-133343597D01*
X174292627Y-133343598D01*
X174352155Y-133349999D01*
X174352172Y-133350000D01*
X175000000Y-133350000D01*
X175000000Y-132433012D01*
X175057007Y-132465925D01*
X175184174Y-132500000D01*
X175315826Y-132500000D01*
X175442993Y-132465925D01*
X175500000Y-132433012D01*
X175500000Y-133350000D01*
X176147828Y-133350000D01*
X176147844Y-133349999D01*
X176207372Y-133343598D01*
X176207379Y-133343596D01*
X176342086Y-133293354D01*
X176342093Y-133293350D01*
X176457187Y-133207190D01*
X176457190Y-133207187D01*
X176543350Y-133092093D01*
X176543354Y-133092086D01*
X176593596Y-132957379D01*
X176593598Y-132957372D01*
X176599999Y-132897844D01*
X176600000Y-132897827D01*
X176600000Y-132250000D01*
X175683012Y-132250000D01*
X175715925Y-132192993D01*
X175750000Y-132065826D01*
X175750000Y-131934174D01*
X175715925Y-131807007D01*
X175683012Y-131750000D01*
X176600000Y-131750000D01*
X176600000Y-131102172D01*
X176599999Y-131102155D01*
X176593598Y-131042627D01*
X176593596Y-131042620D01*
X176543354Y-130907913D01*
X176543350Y-130907906D01*
X176457190Y-130792812D01*
X176457187Y-130792809D01*
X176342093Y-130706649D01*
X176342086Y-130706645D01*
X176207379Y-130656403D01*
X176207372Y-130656401D01*
X176147844Y-130650000D01*
X175500000Y-130650000D01*
X175500000Y-131566988D01*
X175442993Y-131534075D01*
X175315826Y-131500000D01*
X175184174Y-131500000D01*
X175057007Y-131534075D01*
X175000000Y-131566988D01*
X175000000Y-130650000D01*
X174352155Y-130650000D01*
X174292627Y-130656401D01*
X174292619Y-130656403D01*
X174167333Y-130703132D01*
X174097641Y-130708116D01*
X174036318Y-130674631D01*
X174002834Y-130613307D01*
X174000000Y-130586950D01*
X174000000Y-121500000D01*
X174000000Y-121250000D01*
X179499500Y-121250000D01*
X179499500Y-130496948D01*
G37*
%TD.AperFunction*%
%TD*%
%TA.AperFunction,Conductor*%
%TO.N,/OUT_C*%
G36*
X149618039Y-85770185D02*
G01*
X149663794Y-85822989D01*
X149675000Y-85874500D01*
X149675000Y-96275000D01*
X159001000Y-96275000D01*
X159068039Y-96294685D01*
X159113794Y-96347489D01*
X159125000Y-96399000D01*
X159125000Y-96617361D01*
X159105315Y-96684400D01*
X159099551Y-96692597D01*
X159033608Y-96806812D01*
X158999500Y-96934108D01*
X158999500Y-97065891D01*
X159033608Y-97193187D01*
X159067959Y-97252684D01*
X159099500Y-97307314D01*
X159099501Y-97307315D01*
X159103564Y-97314352D01*
X159102414Y-97315015D01*
X159124570Y-97372316D01*
X159125000Y-97382638D01*
X159125000Y-100117361D01*
X159105315Y-100184400D01*
X159099551Y-100192597D01*
X159033608Y-100306812D01*
X158999500Y-100434108D01*
X158999500Y-100565891D01*
X159033608Y-100693187D01*
X159067959Y-100752684D01*
X159099500Y-100807314D01*
X159099501Y-100807315D01*
X159103564Y-100814352D01*
X159102414Y-100815015D01*
X159124570Y-100872316D01*
X159125000Y-100882638D01*
X159125000Y-103826000D01*
X159105315Y-103893039D01*
X159052511Y-103938794D01*
X159001000Y-103950000D01*
X158524000Y-103950000D01*
X158456961Y-103930315D01*
X158411206Y-103877511D01*
X158400000Y-103826000D01*
X158400000Y-97500000D01*
X145149000Y-97500000D01*
X145081961Y-97480315D01*
X145036206Y-97427511D01*
X145025000Y-97376000D01*
X145025000Y-89883909D01*
X146025000Y-89883909D01*
X146025000Y-90116090D01*
X146061318Y-90345393D01*
X146133065Y-90566205D01*
X146238465Y-90773064D01*
X146295238Y-90851207D01*
X146898958Y-90247487D01*
X146923978Y-90307890D01*
X146995112Y-90414351D01*
X147085649Y-90504888D01*
X147192110Y-90576022D01*
X147252510Y-90601041D01*
X146648791Y-91204759D01*
X146648791Y-91204760D01*
X146726935Y-91261534D01*
X146933794Y-91366934D01*
X147154606Y-91438681D01*
X147383910Y-91475000D01*
X147616090Y-91475000D01*
X147845393Y-91438681D01*
X148066205Y-91366934D01*
X148273071Y-91261530D01*
X148351207Y-91204762D01*
X148351208Y-91204760D01*
X147747488Y-90601041D01*
X147807890Y-90576022D01*
X147914351Y-90504888D01*
X148004888Y-90414351D01*
X148076022Y-90307890D01*
X148101041Y-90247488D01*
X148704760Y-90851208D01*
X148704762Y-90851207D01*
X148761530Y-90773071D01*
X148866934Y-90566205D01*
X148938681Y-90345393D01*
X148975000Y-90116090D01*
X148975000Y-89883909D01*
X148938681Y-89654606D01*
X148866934Y-89433794D01*
X148761534Y-89226935D01*
X148704760Y-89148791D01*
X148704759Y-89148791D01*
X148101041Y-89752510D01*
X148076022Y-89692110D01*
X148004888Y-89585649D01*
X147914351Y-89495112D01*
X147807890Y-89423978D01*
X147747487Y-89398957D01*
X148351207Y-88795238D01*
X148273064Y-88738465D01*
X148066205Y-88633065D01*
X147845393Y-88561318D01*
X147616090Y-88525000D01*
X147383910Y-88525000D01*
X147154606Y-88561318D01*
X146933794Y-88633065D01*
X146726925Y-88738470D01*
X146648791Y-88795237D01*
X146648791Y-88795238D01*
X147252511Y-89398958D01*
X147192110Y-89423978D01*
X147085649Y-89495112D01*
X146995112Y-89585649D01*
X146923978Y-89692110D01*
X146898958Y-89752511D01*
X146295238Y-89148791D01*
X146295237Y-89148791D01*
X146238470Y-89226925D01*
X146133065Y-89433794D01*
X146061318Y-89654606D01*
X146025000Y-89883909D01*
X145025000Y-89883909D01*
X145025000Y-85874500D01*
X145044685Y-85807461D01*
X145097489Y-85761706D01*
X145149000Y-85750500D01*
X149551000Y-85750500D01*
X149618039Y-85770185D01*
G37*
%TD.AperFunction*%
%TD*%
%TA.AperFunction,Conductor*%
%TO.N,/SW_BK*%
G36*
X179392606Y-106005023D02*
G01*
X179407604Y-106009427D01*
X179466355Y-106047172D01*
X179467542Y-106048541D01*
X179495018Y-106103402D01*
X179496663Y-106110960D01*
X179499500Y-106137331D01*
X179499500Y-113170500D01*
X179479815Y-113237539D01*
X179427011Y-113283294D01*
X179375500Y-113294500D01*
X173977386Y-113294500D01*
X173910347Y-113274815D01*
X173893975Y-113262253D01*
X172338234Y-111847942D01*
X171497153Y-111083323D01*
X171460790Y-111023664D01*
X171462454Y-110953814D01*
X171466010Y-110944105D01*
X171466386Y-110943195D01*
X171466392Y-110943186D01*
X171500500Y-110815892D01*
X171500500Y-110684108D01*
X171466392Y-110556814D01*
X171400500Y-110442686D01*
X171307314Y-110349500D01*
X171250250Y-110316554D01*
X171193187Y-110283608D01*
X171129539Y-110266554D01*
X171065892Y-110249500D01*
X171065891Y-110249500D01*
X170934108Y-110249500D01*
X170806809Y-110283608D01*
X170769423Y-110305194D01*
X170701523Y-110321666D01*
X170635496Y-110298813D01*
X170624013Y-110289559D01*
X170173707Y-109880190D01*
X170160562Y-109869205D01*
X170144197Y-109856648D01*
X170144191Y-109856644D01*
X170077002Y-109822512D01*
X170076993Y-109822508D01*
X170009966Y-109802826D01*
X170009317Y-109802732D01*
X169952061Y-109794500D01*
X169952057Y-109794500D01*
X167623992Y-109794500D01*
X167580313Y-109799197D01*
X167528825Y-109810397D01*
X167518627Y-109812890D01*
X167518624Y-109812891D01*
X167437916Y-109855899D01*
X167437913Y-109855901D01*
X167385104Y-109901660D01*
X167367160Y-109919242D01*
X167367156Y-109919247D01*
X167357485Y-109936537D01*
X167307577Y-109985434D01*
X167249266Y-110000000D01*
X164641830Y-110000000D01*
X164606889Y-109994975D01*
X164591890Y-109990570D01*
X164533144Y-109952827D01*
X164531957Y-109951458D01*
X164504477Y-109896583D01*
X164502832Y-109889021D01*
X164500000Y-109862668D01*
X164500000Y-109141829D01*
X164505023Y-109106893D01*
X164509427Y-109091895D01*
X164547172Y-109033144D01*
X164548541Y-109031957D01*
X164603420Y-109004477D01*
X164610979Y-109002833D01*
X164637332Y-109000000D01*
X169500000Y-109000000D01*
X169500000Y-106141829D01*
X169505023Y-106106893D01*
X169509427Y-106091895D01*
X169547172Y-106033144D01*
X169548541Y-106031957D01*
X169603420Y-106004477D01*
X169610979Y-106002833D01*
X169637332Y-106000000D01*
X179357670Y-106000000D01*
X179392606Y-106005023D01*
G37*
%TD.AperFunction*%
%TD*%
%TA.AperFunction,Conductor*%
%TO.N,+24V*%
G36*
X175500000Y-105750000D02*
G01*
X175491819Y-105758181D01*
X175430496Y-105791666D01*
X175404138Y-105794500D01*
X169637332Y-105794500D01*
X169626187Y-105795097D01*
X169615375Y-105795676D01*
X169608901Y-105796372D01*
X169589014Y-105798510D01*
X169572230Y-105801229D01*
X169567311Y-105802026D01*
X169567307Y-105802026D01*
X169567306Y-105802027D01*
X169559747Y-105803671D01*
X169559742Y-105803672D01*
X169559733Y-105803675D01*
X169511421Y-105820720D01*
X169511405Y-105820727D01*
X169456538Y-105848201D01*
X169456525Y-105848209D01*
X169413923Y-105876689D01*
X169413915Y-105876695D01*
X169412546Y-105877882D01*
X169374277Y-105922067D01*
X169360815Y-105943023D01*
X169308018Y-105988786D01*
X169256489Y-106000000D01*
X166891830Y-106000000D01*
X166856889Y-105994975D01*
X166841890Y-105990570D01*
X166783144Y-105952827D01*
X166781957Y-105951458D01*
X166754477Y-105896583D01*
X166752832Y-105889021D01*
X166750000Y-105862668D01*
X166750000Y-103350000D01*
X166750000Y-103100000D01*
X175500000Y-103100000D01*
X175500000Y-105750000D01*
G37*
%TD.AperFunction*%
%TD*%
%TA.AperFunction,Conductor*%
%TO.N,/OUT_B*%
G36*
X154433603Y-85824508D02*
G01*
X154468514Y-85829649D01*
X154483499Y-85834106D01*
X154542143Y-85872079D01*
X154543412Y-85873554D01*
X154570621Y-85928269D01*
X154572211Y-85935638D01*
X154575000Y-85961791D01*
X154575000Y-94225000D01*
X160483170Y-94225000D01*
X160518106Y-94230023D01*
X160533104Y-94234427D01*
X160591855Y-94272172D01*
X160593042Y-94273541D01*
X160620518Y-94328402D01*
X160622163Y-94335960D01*
X160625000Y-94362331D01*
X160625000Y-96599531D01*
X160619976Y-96634470D01*
X160610557Y-96666544D01*
X160598968Y-96693605D01*
X160533609Y-96806808D01*
X160533608Y-96806812D01*
X160499500Y-96934108D01*
X160499500Y-97065891D01*
X160516554Y-97129539D01*
X160533608Y-97193188D01*
X160567959Y-97252684D01*
X160567959Y-97252685D01*
X160594504Y-97298662D01*
X160602771Y-97315939D01*
X160616654Y-97351845D01*
X160625000Y-97396564D01*
X160625000Y-100099531D01*
X160619976Y-100134470D01*
X160610557Y-100166544D01*
X160598968Y-100193605D01*
X160533609Y-100306808D01*
X160533608Y-100306812D01*
X160499500Y-100434108D01*
X160499500Y-100565891D01*
X160516554Y-100629539D01*
X160533608Y-100693188D01*
X160567959Y-100752684D01*
X160567959Y-100752685D01*
X160594504Y-100798662D01*
X160602771Y-100815939D01*
X160616654Y-100851845D01*
X160625000Y-100896564D01*
X160625000Y-103808170D01*
X160619975Y-103843114D01*
X160615570Y-103858112D01*
X160577827Y-103916855D01*
X160576458Y-103918042D01*
X160521597Y-103945518D01*
X160514039Y-103947163D01*
X160487668Y-103950000D01*
X160041830Y-103950000D01*
X160006889Y-103944975D01*
X159991890Y-103940570D01*
X159933144Y-103902827D01*
X159931957Y-103901458D01*
X159904477Y-103846583D01*
X159902832Y-103839021D01*
X159900000Y-103812668D01*
X159900000Y-100857729D01*
X159904223Y-100825642D01*
X159912387Y-100795170D01*
X159924775Y-100765268D01*
X159966389Y-100693191D01*
X159966388Y-100693191D01*
X159966392Y-100693186D01*
X160000500Y-100565892D01*
X160000500Y-100434108D01*
X159966392Y-100306814D01*
X159924775Y-100234732D01*
X159912388Y-100204825D01*
X159904225Y-100174359D01*
X159900000Y-100142267D01*
X159900000Y-97357729D01*
X159904223Y-97325642D01*
X159912387Y-97295170D01*
X159924775Y-97265268D01*
X159966389Y-97193191D01*
X159966388Y-97193191D01*
X159966392Y-97193186D01*
X160000500Y-97065892D01*
X160000500Y-96934108D01*
X159966392Y-96806814D01*
X159924775Y-96734732D01*
X159912388Y-96704825D01*
X159904225Y-96674359D01*
X159900000Y-96642267D01*
X159900000Y-95500000D01*
X150691830Y-95500000D01*
X150656889Y-95494975D01*
X150641890Y-95490570D01*
X150583144Y-95452827D01*
X150581957Y-95451458D01*
X150554477Y-95396583D01*
X150552832Y-95389021D01*
X150550000Y-95362668D01*
X150550000Y-89883909D01*
X151025000Y-89883909D01*
X151025000Y-90116089D01*
X151045811Y-90247489D01*
X151061318Y-90345393D01*
X151133065Y-90566205D01*
X151238465Y-90773064D01*
X151295238Y-90851207D01*
X151782924Y-90363520D01*
X151844245Y-90330037D01*
X151913936Y-90335021D01*
X151969870Y-90376892D01*
X151973691Y-90382292D01*
X151995112Y-90414351D01*
X151995116Y-90414355D01*
X151995116Y-90414356D01*
X152085646Y-90504886D01*
X152117684Y-90526293D01*
X152162489Y-90579906D01*
X152171196Y-90649231D01*
X152141041Y-90712258D01*
X152136474Y-90717076D01*
X151648791Y-91204758D01*
X151648791Y-91204759D01*
X151648791Y-91204760D01*
X151726935Y-91261534D01*
X151933794Y-91366934D01*
X152154606Y-91438681D01*
X152383910Y-91475000D01*
X152616089Y-91475000D01*
X152616090Y-91475000D01*
X152845393Y-91438681D01*
X153066205Y-91366934D01*
X153273071Y-91261530D01*
X153351207Y-91204762D01*
X153351208Y-91204760D01*
X153351207Y-91204758D01*
X152863524Y-90717076D01*
X152830039Y-90655753D01*
X152835023Y-90586062D01*
X152876894Y-90530128D01*
X152882270Y-90526323D01*
X152914351Y-90504888D01*
X153004888Y-90414351D01*
X153026295Y-90382312D01*
X153079903Y-90337510D01*
X153149227Y-90328801D01*
X153212256Y-90358955D01*
X153217076Y-90363524D01*
X153704758Y-90851207D01*
X153704760Y-90851208D01*
X153704762Y-90851207D01*
X153761530Y-90773071D01*
X153866934Y-90566205D01*
X153938681Y-90345393D01*
X153975000Y-90116090D01*
X153975000Y-89883909D01*
X153938681Y-89654606D01*
X153866934Y-89433794D01*
X153761534Y-89226935D01*
X153704760Y-89148791D01*
X153704759Y-89148791D01*
X153704758Y-89148791D01*
X153217076Y-89636474D01*
X153155753Y-89669959D01*
X153086061Y-89664975D01*
X153030128Y-89623103D01*
X153026293Y-89617684D01*
X153004886Y-89585646D01*
X152914356Y-89495116D01*
X152914352Y-89495113D01*
X152914351Y-89495112D01*
X152882310Y-89473703D01*
X152837507Y-89420091D01*
X152828800Y-89350766D01*
X152858955Y-89287739D01*
X152863500Y-89282943D01*
X153351207Y-88795238D01*
X153273064Y-88738465D01*
X153066205Y-88633065D01*
X152845393Y-88561318D01*
X152845391Y-88561317D01*
X152845390Y-88561317D01*
X152669244Y-88533418D01*
X152616090Y-88525000D01*
X152616089Y-88525000D01*
X152383905Y-88525000D01*
X152154609Y-88561317D01*
X151933791Y-88633066D01*
X151726926Y-88738469D01*
X151726922Y-88738471D01*
X151648791Y-88795237D01*
X151648791Y-88795238D01*
X152136475Y-89282922D01*
X152169960Y-89344245D01*
X152164976Y-89413937D01*
X152123104Y-89469870D01*
X152117688Y-89473703D01*
X152085648Y-89495112D01*
X152085643Y-89495116D01*
X151995116Y-89585643D01*
X151995112Y-89585648D01*
X151973703Y-89617688D01*
X151920090Y-89662491D01*
X151850764Y-89671197D01*
X151787738Y-89641040D01*
X151782922Y-89636475D01*
X151295238Y-89148791D01*
X151295237Y-89148791D01*
X151238471Y-89226922D01*
X151238469Y-89226926D01*
X151133066Y-89433791D01*
X151061317Y-89654609D01*
X151025000Y-89883909D01*
X150550000Y-89883909D01*
X150550000Y-85953283D01*
X150555023Y-85918347D01*
X150559427Y-85903349D01*
X150597154Y-85844613D01*
X150597299Y-85844487D01*
X150598438Y-85843499D01*
X150653538Y-85815961D01*
X150661299Y-85814287D01*
X150687866Y-85811501D01*
X154433603Y-85824508D01*
G37*
%TD.AperFunction*%
%TD*%
%TA.AperFunction,Conductor*%
%TO.N,PGND*%
G36*
X150238597Y-85829754D02*
G01*
X150284352Y-85882558D01*
X150295241Y-85942917D01*
X150294500Y-85953283D01*
X150294500Y-85953288D01*
X150294500Y-95362674D01*
X150295960Y-95389938D01*
X150295962Y-95389966D01*
X150298794Y-95416324D01*
X150298795Y-95416329D01*
X150303165Y-95443296D01*
X150303173Y-95443342D01*
X150304814Y-95450886D01*
X150326023Y-95510990D01*
X150353499Y-95565857D01*
X150353504Y-95565866D01*
X150388912Y-95618831D01*
X150388914Y-95618834D01*
X150388916Y-95618836D01*
X150390103Y-95620205D01*
X150445038Y-95667785D01*
X150503784Y-95705528D01*
X150569892Y-95735715D01*
X150569893Y-95735715D01*
X150569894Y-95735716D01*
X150584893Y-95740121D01*
X150584900Y-95740122D01*
X150584902Y-95740123D01*
X150620504Y-95747870D01*
X150620519Y-95747873D01*
X150655460Y-95752898D01*
X150691830Y-95755500D01*
X159520500Y-95755500D01*
X159587539Y-95775185D01*
X159633294Y-95827989D01*
X159644500Y-95879500D01*
X159644500Y-96642267D01*
X159646013Y-96665355D01*
X159646686Y-96675621D01*
X159650911Y-96707709D01*
X159657427Y-96740475D01*
X159657430Y-96740487D01*
X159665586Y-96770929D01*
X159665596Y-96770959D01*
X159676332Y-96802590D01*
X159676340Y-96802611D01*
X159688722Y-96832504D01*
X159703506Y-96862484D01*
X159720140Y-96891295D01*
X159722731Y-96901976D01*
X159729254Y-96910826D01*
X159732527Y-96921198D01*
X159740774Y-96951973D01*
X159745000Y-96984070D01*
X159745000Y-97015928D01*
X159740775Y-97048021D01*
X159732529Y-97078796D01*
X159731857Y-97079898D01*
X159731862Y-97081188D01*
X159720141Y-97108703D01*
X159703512Y-97137505D01*
X159688727Y-97167483D01*
X159676340Y-97197383D01*
X159665593Y-97229042D01*
X159657428Y-97259518D01*
X159650907Y-97292301D01*
X159646684Y-97324383D01*
X159646684Y-97324390D01*
X159644500Y-97357729D01*
X159644500Y-100142267D01*
X159646013Y-100165355D01*
X159646686Y-100175621D01*
X159650911Y-100207709D01*
X159657427Y-100240475D01*
X159657430Y-100240487D01*
X159665586Y-100270929D01*
X159665596Y-100270959D01*
X159676332Y-100302590D01*
X159676340Y-100302611D01*
X159688722Y-100332504D01*
X159703506Y-100362484D01*
X159720140Y-100391295D01*
X159722731Y-100401976D01*
X159729254Y-100410826D01*
X159732527Y-100421198D01*
X159740774Y-100451973D01*
X159745000Y-100484070D01*
X159745000Y-100515928D01*
X159740775Y-100548021D01*
X159732529Y-100578796D01*
X159731857Y-100579898D01*
X159731862Y-100581188D01*
X159720141Y-100608703D01*
X159703512Y-100637505D01*
X159688727Y-100667483D01*
X159676340Y-100697383D01*
X159665593Y-100729042D01*
X159657428Y-100759518D01*
X159650907Y-100792301D01*
X159646684Y-100824383D01*
X159644500Y-100857736D01*
X159644500Y-103812669D01*
X159644832Y-103818863D01*
X159628764Y-103886860D01*
X159578485Y-103935375D01*
X159521010Y-103949500D01*
X159504500Y-103949500D01*
X159437461Y-103929815D01*
X159391706Y-103877011D01*
X159380500Y-103825500D01*
X159380500Y-100882632D01*
X159380461Y-100880761D01*
X159380279Y-100872003D01*
X159379849Y-100861681D01*
X159362876Y-100780173D01*
X159340720Y-100722872D01*
X159330099Y-100695404D01*
X159327287Y-100690851D01*
X159316706Y-100672526D01*
X159316702Y-100672520D01*
X159289227Y-100624931D01*
X159289227Y-100624930D01*
X159279859Y-100608705D01*
X159267470Y-100578798D01*
X159259223Y-100548019D01*
X159255000Y-100515932D01*
X159255000Y-100484065D01*
X159259223Y-100451979D01*
X159267471Y-100421196D01*
X159279858Y-100391293D01*
X159333870Y-100297746D01*
X159333975Y-100293370D01*
X159340386Y-100277291D01*
X159343453Y-100270929D01*
X159350465Y-100256385D01*
X159370150Y-100189346D01*
X159380500Y-100117361D01*
X159380500Y-97382638D01*
X159380279Y-97372003D01*
X159379849Y-97361681D01*
X159362876Y-97280173D01*
X159340720Y-97222872D01*
X159330099Y-97195404D01*
X159327287Y-97190851D01*
X159316706Y-97172526D01*
X159316702Y-97172520D01*
X159289227Y-97124931D01*
X159289227Y-97124930D01*
X159279859Y-97108705D01*
X159267470Y-97078798D01*
X159259223Y-97048019D01*
X159255000Y-97015932D01*
X159255000Y-96984065D01*
X159259223Y-96951979D01*
X159267471Y-96921196D01*
X159279858Y-96891293D01*
X159333870Y-96797746D01*
X159333975Y-96793370D01*
X159340386Y-96777291D01*
X159343453Y-96770929D01*
X159350465Y-96756385D01*
X159370150Y-96689346D01*
X159380500Y-96617361D01*
X159380500Y-96399000D01*
X159374661Y-96344687D01*
X159363455Y-96293176D01*
X159356219Y-96266802D01*
X159356216Y-96266796D01*
X159306894Y-96180181D01*
X159306890Y-96180176D01*
X159306888Y-96180172D01*
X159261133Y-96127368D01*
X159228359Y-96095743D01*
X159140024Y-96049535D01*
X159140023Y-96049534D01*
X159140022Y-96049534D01*
X159140022Y-96049533D01*
X159072990Y-96029851D01*
X159072978Y-96029848D01*
X159001001Y-96019500D01*
X159001000Y-96019500D01*
X150054500Y-96019500D01*
X149987461Y-95999815D01*
X149941706Y-95947011D01*
X149930500Y-95895500D01*
X149930500Y-85934069D01*
X149950185Y-85867030D01*
X150002989Y-85821275D01*
X150054500Y-85810069D01*
X150171558Y-85810069D01*
X150238597Y-85829754D01*
G37*
%TD.AperFunction*%
%TD*%
%TA.AperFunction,Conductor*%
%TO.N,+24V*%
G36*
X175998426Y-85750535D02*
G01*
X176001512Y-85750611D01*
X176004463Y-85750718D01*
X176333916Y-85766904D01*
X176339916Y-85767346D01*
X176346061Y-85767951D01*
X176352002Y-85768684D01*
X176452146Y-85783539D01*
X176673695Y-85816403D01*
X176679669Y-85817439D01*
X176685639Y-85818626D01*
X176691568Y-85819958D01*
X177006997Y-85898969D01*
X177012864Y-85900592D01*
X177018679Y-85902357D01*
X177024442Y-85904262D01*
X177092787Y-85928716D01*
X177092795Y-85928718D01*
X177092806Y-85928722D01*
X177330649Y-86013824D01*
X177336244Y-86015982D01*
X177341885Y-86018318D01*
X177347404Y-86020763D01*
X177641419Y-86159822D01*
X177646823Y-86162541D01*
X177652223Y-86165428D01*
X177657456Y-86168393D01*
X177936382Y-86335575D01*
X177941500Y-86338815D01*
X177946578Y-86342208D01*
X177951541Y-86345703D01*
X178212726Y-86539412D01*
X178217524Y-86543157D01*
X178222225Y-86547015D01*
X178226833Y-86550990D01*
X178467760Y-86769353D01*
X178472168Y-86773550D01*
X178476449Y-86777831D01*
X178480646Y-86782239D01*
X178665755Y-86986475D01*
X178699008Y-87023164D01*
X178702974Y-87027761D01*
X178705754Y-87031148D01*
X178706850Y-87032484D01*
X178710586Y-87037272D01*
X178904295Y-87298457D01*
X178907802Y-87303437D01*
X178911170Y-87308478D01*
X178914423Y-87313616D01*
X179041776Y-87526092D01*
X179081579Y-87592499D01*
X179084569Y-87597776D01*
X179087440Y-87603145D01*
X179090187Y-87608600D01*
X179229211Y-87902542D01*
X179231683Y-87908121D01*
X179234015Y-87913753D01*
X179236191Y-87919395D01*
X179345733Y-88225543D01*
X179347634Y-88231297D01*
X179349399Y-88237111D01*
X179351030Y-88243001D01*
X179430037Y-88558415D01*
X179431370Y-88564352D01*
X179432557Y-88570319D01*
X179433598Y-88576318D01*
X179481306Y-88897944D01*
X179482051Y-88903983D01*
X179482648Y-88910044D01*
X179483096Y-88916114D01*
X179499276Y-89245451D01*
X179499387Y-89248476D01*
X179499462Y-89251514D01*
X179499500Y-89254574D01*
X179499500Y-105608170D01*
X179494475Y-105643114D01*
X179490070Y-105658112D01*
X179452327Y-105716855D01*
X179450958Y-105718042D01*
X179396097Y-105745518D01*
X179388539Y-105747163D01*
X179362168Y-105750000D01*
X175500000Y-105750000D01*
X175500000Y-95000000D01*
X169641830Y-95000000D01*
X169606889Y-94994975D01*
X169591890Y-94990570D01*
X169533144Y-94952827D01*
X169531957Y-94951458D01*
X169504477Y-94896583D01*
X169502832Y-94889021D01*
X169500000Y-94862668D01*
X169500000Y-89883909D01*
X170525000Y-89883909D01*
X170525000Y-90116089D01*
X170545811Y-90247489D01*
X170561318Y-90345393D01*
X170633065Y-90566205D01*
X170738465Y-90773064D01*
X170795238Y-90851207D01*
X171282924Y-90363520D01*
X171344245Y-90330037D01*
X171413936Y-90335021D01*
X171469870Y-90376892D01*
X171473691Y-90382292D01*
X171495112Y-90414351D01*
X171495116Y-90414355D01*
X171495116Y-90414356D01*
X171585646Y-90504886D01*
X171617684Y-90526293D01*
X171662489Y-90579906D01*
X171671196Y-90649231D01*
X171641041Y-90712258D01*
X171636474Y-90717076D01*
X171148791Y-91204758D01*
X171148791Y-91204759D01*
X171148791Y-91204760D01*
X171226935Y-91261534D01*
X171433794Y-91366934D01*
X171654606Y-91438681D01*
X171883910Y-91475000D01*
X172116089Y-91475000D01*
X172116090Y-91475000D01*
X172345393Y-91438681D01*
X172566205Y-91366934D01*
X172773071Y-91261530D01*
X172851207Y-91204762D01*
X172851208Y-91204760D01*
X172851207Y-91204758D01*
X172363524Y-90717076D01*
X172330039Y-90655753D01*
X172335023Y-90586062D01*
X172376894Y-90530128D01*
X172382270Y-90526323D01*
X172414351Y-90504888D01*
X172504888Y-90414351D01*
X172526295Y-90382312D01*
X172579903Y-90337510D01*
X172649227Y-90328801D01*
X172712256Y-90358955D01*
X172717076Y-90363524D01*
X173204758Y-90851207D01*
X173204760Y-90851208D01*
X173204762Y-90851207D01*
X173261530Y-90773071D01*
X173366934Y-90566205D01*
X173438681Y-90345393D01*
X173475000Y-90116090D01*
X173475000Y-89883909D01*
X173438681Y-89654606D01*
X173366934Y-89433794D01*
X173261534Y-89226935D01*
X173204760Y-89148791D01*
X173204759Y-89148791D01*
X173204758Y-89148791D01*
X172717076Y-89636474D01*
X172655753Y-89669959D01*
X172586061Y-89664975D01*
X172530128Y-89623103D01*
X172526293Y-89617684D01*
X172504886Y-89585646D01*
X172414356Y-89495116D01*
X172414352Y-89495113D01*
X172414351Y-89495112D01*
X172382310Y-89473703D01*
X172337507Y-89420091D01*
X172328800Y-89350766D01*
X172358955Y-89287739D01*
X172363500Y-89282943D01*
X172851207Y-88795238D01*
X172773064Y-88738465D01*
X172566205Y-88633065D01*
X172345393Y-88561318D01*
X172345391Y-88561317D01*
X172345390Y-88561317D01*
X172169244Y-88533418D01*
X172116090Y-88525000D01*
X172116089Y-88525000D01*
X171883905Y-88525000D01*
X171654609Y-88561317D01*
X171433791Y-88633066D01*
X171226926Y-88738469D01*
X171226922Y-88738471D01*
X171148791Y-88795237D01*
X171148791Y-88795238D01*
X171636475Y-89282922D01*
X171669960Y-89344245D01*
X171664976Y-89413937D01*
X171623104Y-89469870D01*
X171617688Y-89473703D01*
X171585648Y-89495112D01*
X171585643Y-89495116D01*
X171495116Y-89585643D01*
X171495112Y-89585648D01*
X171473703Y-89617688D01*
X171420090Y-89662491D01*
X171350764Y-89671197D01*
X171287738Y-89641040D01*
X171282922Y-89636475D01*
X170795238Y-89148791D01*
X170795237Y-89148791D01*
X170738471Y-89226922D01*
X170738469Y-89226926D01*
X170633066Y-89433791D01*
X170561317Y-89654609D01*
X170525000Y-89883909D01*
X169500000Y-89883909D01*
X169500000Y-85892329D01*
X169505023Y-85857393D01*
X169509427Y-85842395D01*
X169547172Y-85783644D01*
X169548541Y-85782457D01*
X169603420Y-85754977D01*
X169610979Y-85753333D01*
X169637332Y-85750500D01*
X175995454Y-85750500D01*
X175998426Y-85750535D01*
G37*
%TD.AperFunction*%
%TD*%
M02*
