%TF.GenerationSoftware,KiCad,Pcbnew,10.0.6*%
%TF.CreationDate,2026-09-18T00:23:22-04:00*%
%TF.ProjectId,uwmtr-thruster-control-board-hw,75776d74-722d-4746-9872-75737465722d,rev?*%
%TF.SameCoordinates,Original*%
%TF.FileFunction,Soldermask,Top*%
%TF.FilePolarity,Negative*%
%FSLAX46Y46*%
G04 Gerber Fmt 4.6, Leading zero omitted, Abs format (unit mm)*
G04 Created by KiCad (PCBNEW 10.0.6) date 2026-09-18 00:23:22*
%MOMM*%
%LPD*%
G01*
G04 APERTURE LIST*
G04 Aperture macros list*
%AMRoundRect*
0 Rectangle with rounded corners*
0 $1 Rounding radius*
0 $2 $3 $4 $5 $6 $7 $8 $9 X,Y pos of 4 corners*
0 Add a 4 corners polygon primitive as box body*
4,1,4,$2,$3,$4,$5,$6,$7,$8,$9,$2,$3,0*
0 Add four circle primitives for the rounded corners*
1,1,$1+$1,$2,$3*
1,1,$1+$1,$4,$5*
1,1,$1+$1,$6,$7*
1,1,$1+$1,$8,$9*
0 Add four rect primitives between the rounded corners*
20,1,$1+$1,$2,$3,$4,$5,0*
20,1,$1+$1,$4,$5,$6,$7,0*
20,1,$1+$1,$6,$7,$8,$9,0*
20,1,$1+$1,$8,$9,$2,$3,0*%
G04 Aperture macros list end*
%ADD10RoundRect,0.225000X0.250000X-0.225000X0.250000X0.225000X-0.250000X0.225000X-0.250000X-0.225000X0*%
%ADD11C,2.154000*%
%ADD12C,1.600000*%
%ADD13RoundRect,0.225000X-0.250000X0.225000X-0.250000X-0.225000X0.250000X-0.225000X0.250000X0.225000X0*%
%ADD14RoundRect,0.225000X-0.225000X-0.250000X0.225000X-0.250000X0.225000X0.250000X-0.225000X0.250000X0*%
%ADD15R,1.700000X1.700000*%
%ADD16C,1.700000*%
%ADD17RoundRect,0.200000X-0.275000X0.200000X-0.275000X-0.200000X0.275000X-0.200000X0.275000X0.200000X0*%
%ADD18RoundRect,0.200000X-0.200000X-0.275000X0.200000X-0.275000X0.200000X0.275000X-0.200000X0.275000X0*%
%ADD19R,0.906066X0.242473*%
%ADD20R,0.242473X0.906066*%
%ADD21R,3.800000X5.800001*%
%ADD22RoundRect,0.250000X-0.625000X0.312500X-0.625000X-0.312500X0.625000X-0.312500X0.625000X0.312500X0*%
G04 APERTURE END LIST*
D10*
%TO.C,C2*%
X154372492Y-106977271D03*
X154372492Y-105427271D03*
%TD*%
D11*
%TO.C,J3*%
X172000000Y-90000000D03*
X167000000Y-90000000D03*
%TD*%
D12*
%TO.C,C6*%
X173000000Y-101900000D03*
X173000000Y-98400000D03*
%TD*%
D13*
%TO.C,C5*%
X165560862Y-99460894D03*
X165560862Y-101010894D03*
%TD*%
D14*
%TO.C,C4*%
X165853322Y-104642252D03*
X167403322Y-104642252D03*
%TD*%
D15*
%TO.C,J1*%
X175250000Y-132000000D03*
D16*
X172710000Y-132000000D03*
X170170000Y-132000000D03*
X167630000Y-132000000D03*
X165090000Y-132000000D03*
X162550000Y-132000000D03*
X160010000Y-132000000D03*
X157470000Y-132000000D03*
X154930000Y-132000000D03*
X152390000Y-132000000D03*
X149850000Y-132000000D03*
X147310000Y-132000000D03*
X144770000Y-132000000D03*
%TD*%
D17*
%TO.C,R5*%
X148202126Y-113882765D03*
X148202126Y-115532765D03*
%TD*%
D18*
%TO.C,R2*%
X150008128Y-104134966D03*
X151658128Y-104134966D03*
%TD*%
D14*
%TO.C,C1*%
X165856574Y-106968108D03*
X167406574Y-106968108D03*
%TD*%
D10*
%TO.C,C3*%
X165938345Y-113018760D03*
X165938345Y-111468760D03*
%TD*%
D17*
%TO.C,R4*%
X151772095Y-113923137D03*
X151772095Y-115573137D03*
%TD*%
D10*
%TO.C,C7*%
X168418626Y-113041246D03*
X168418626Y-111491246D03*
%TD*%
D19*
%TO.C,U1*%
X162753033Y-109750000D03*
X162753033Y-109250001D03*
X162753033Y-108749999D03*
X162753033Y-108250000D03*
X162753033Y-107750001D03*
X162753033Y-107250000D03*
X162753033Y-106750000D03*
X162753033Y-106249999D03*
X162753033Y-105750000D03*
X162753033Y-105250001D03*
X162753033Y-104749999D03*
X162753033Y-104250000D03*
D20*
X161999999Y-103496967D03*
X161500000Y-103496967D03*
X161000001Y-103496967D03*
X160500000Y-103496967D03*
X160000000Y-103496967D03*
X159499999Y-103496967D03*
X159000000Y-103496967D03*
X158500001Y-103496967D03*
D19*
X157746967Y-104250000D03*
X157746967Y-104749999D03*
X157746967Y-105250001D03*
X157746967Y-105750000D03*
X157746967Y-106249999D03*
X157746967Y-106750000D03*
X157746967Y-107250000D03*
X157746967Y-107750001D03*
X157746967Y-108250000D03*
X157746967Y-108749999D03*
X157746967Y-109250001D03*
X157746967Y-109750000D03*
D20*
X158500001Y-110503033D03*
X159000000Y-110503033D03*
X159499999Y-110503033D03*
X160000000Y-110503033D03*
X160500000Y-110503033D03*
X161000001Y-110503033D03*
X161500000Y-110503033D03*
X161999999Y-110503033D03*
D21*
X160250000Y-107000000D03*
%TD*%
D11*
%TO.C,J2*%
X157500000Y-90000000D03*
X152500000Y-90000000D03*
X147500000Y-90000000D03*
%TD*%
D22*
%TO.C,R1*%
X176431474Y-111754051D03*
X176431474Y-114679051D03*
%TD*%
D18*
%TO.C,R3*%
X162085177Y-116193569D03*
X163735177Y-116193569D03*
%TD*%
M02*
